# xmcd CD database file
#
# Track frame offsets:
#	150
#	22973
#	46703
#	66749
#	95517
#	115636
#	137825
#	150092
#	170216
#	192249
#	215093
#	238886
#
# Disc length: 3449 seconds
#
# Revision: 0
# Processed by: cddbd v1.5.2PL0 Copyright (c) Steve Scherf et al.
# Submitted via: CDex 1.70beta3
#
DISCID=a70d770c
DTITLE=Pizuya's Cell feat.3L - EXCELSIOR
DYEAR=2012
DGENRE=Jazz
TTITLE0=スペクタクルドリーム
TTITLE1=Excelsior
TTITLE2=DD -instrument-
TTITLE3=Old Nezumy
TTITLE4=忘却の未来
TTITLE5=夢の雫
TTITLE6=original -instrument-
TTITLE7=プリズムループ
TTITLE8=八雲紫のタイムマシン
TTITLE9=スペクタクルドリーム -offvox-
TTITLE10=Excellsior -offvox-
TTITLE11=忘却の未来 -offvox-
EXTD=YEAR: 2012
EXTT0=
EXTT1=
EXTT2=
EXTT3=
EXTT4=
EXTT5=
EXTT6=
EXTT7=
EXTT8=
EXTT9=
EXTT10=
EXTT11=
PLAYORDER=
